<?xml version="1.0" standalone="no"?>
<!DOCTYPE svg PUBLIC "-//W3C//DTD SVG 20010904//EN"
 "http://www.w3.org/TR/2001/REC-SVG-20010904/DTD/svg10.dtd">
<svg version="1.0" xmlns="http://www.w3.org/2000/svg"
 width="260.000000pt" height="260.000000pt" viewBox="0 0 260.000000 260.000000"
 preserveAspectRatio="xMidYMid meet">
<metadata>
Created by potrace 1.11, written by Peter Selinger 2001-2013
</metadata>
<g transform="translate(0.000000,260.000000) scale(0.100000,-0.100000)"
fill="#000000" stroke="none">
<path d="M0 1300 l0 -1300 1300 0 1300 0 0 1300 0 1300 -1300 0 -1300 0 0
-1300z m2201 1138 c55 -18 88 -47 117 -101 26 -51 27 -57 30 -247 3 -172 -7
-381 -24 -477 l-6 -33 -108 0 -108 0 34 81 c121 286 168 453 142 506 -20 42
-71 63 -154 63 -83 0 -115 -18 -135 -77 -30 -91 27 -344 186 -833 181 -558
219 -714 212 -875 -7 -172 -60 -266 -185 -327 -63 -31 -72 -33 -177 -33 -95 0
-116 3 -152 22 -52 28 -90 77 -109 139 -24 79 -16 521 12 697 l6 37 114 0 c63
0 114 -2 114 -4 0 -1 -24 -54 -54 -117 -65 -138 -119 -290 -135 -382 -23 -131
11 -167 161 -175 102 -5 130 7 155 66 20 48 12 168 -22 317 -14 61 -88 297
-164 525 -189 560 -218 682 -209 872 9 191 80 297 231 349 60 21 177 25 228 7z
m-1711 -543 l0 -535 135 0 135 0 0 535 0 535 120 0 120 0 0 -1160 0 -1160
-120 0 -120 0 0 590 0 590 -135 0 -135 0 0 -590 0 -590 -120 0 -120 0 0 1160
0 1160 120 0 120 0 0 -535z m1190 -740 l0 -55 -265 0 -265 0 0 55 0 55 265 0
265 0 0 -55z"/>
</g>
</svg>
