<?xml version="1.0" standalone="no"?>
<!DOCTYPE svg PUBLIC "-//W3C//DTD SVG 20010904//EN"
 "http://www.w3.org/TR/2001/REC-SVG-20010904/DTD/svg10.dtd">
<svg version="1.0" xmlns="http://www.w3.org/2000/svg"
 width="1024.000000pt" height="1024.000000pt" viewBox="0 0 1024.000000 1024.000000"
 preserveAspectRatio="xMidYMid meet">
<metadata>
Created by potrace 1.14, written by Peter Selinger 2001-2017
</metadata>
<g transform="translate(0.000000,1024.000000) scale(0.100000,-0.100000)"
fill="#000000" stroke="none">
<path d="M2844 8595 c-80 -34 -120 -121 -225 -488 -33 -114 -67 -226 -76 -250
-42 -107 -97 -154 -243 -205 -388 -137 -469 -190 -472 -307 -2 -103 81 -161
386 -272 168 -61 210 -81 253 -117 34 -29 73 -103 98 -186 9 -30 23 -73 30
-95 7 -22 19 -65 26 -95 16 -68 15 -62 22 -80 3 -8 15 -46 27 -85 74 -244 128
-325 218 -325 76 0 126 58 181 210 7 19 17 44 21 55 5 11 25 79 45 150 57 205
76 269 82 285 4 8 7 17 8 20 44 128 89 170 247 229 62 23 147 55 188 72 41 17
80 32 85 33 6 1 33 14 61 29 99 51 144 104 144 171 0 114 -86 171 -468 306
-212 75 -215 80 -352 550 -95 326 -131 384 -246 406 -6 1 -24 -4 -40 -11z"/>
<path d="M6132 8539 c-154 -29 -297 -193 -407 -464 -16 -38 -32 -74 -37 -79
-4 -6 -8 -16 -8 -24 0 -8 -7 -28 -14 -45 -18 -39 -132 -385 -171 -517 -15 -52
-41 -140 -57 -195 -16 -55 -31 -108 -33 -118 -2 -10 -9 -32 -15 -50 -12 -38
-99 -353 -106 -383 -2 -12 -11 -41 -20 -65 -8 -24 -18 -55 -21 -69 -3 -14 -6
-29 -7 -35 -7 -32 -90 -272 -97 -279 -5 -6 -9 -16 -9 -24 0 -18 -100 -220
-123 -247 -9 -11 -31 -39 -51 -62 -19 -24 -49 -55 -68 -70 -18 -15 -35 -31
-38 -34 -13 -17 -171 -104 -255 -139 -51 -22 -207 -81 -347 -131 -139 -50
-280 -101 -313 -113 -408 -155 -618 -251 -769 -350 -75 -50 -174 -138 -204
-182 -25 -38 -61 -120 -70 -161 -16 -70 -7 -211 17 -275 84 -221 367 -392
1071 -648 63 -23 131 -48 150 -55 19 -8 105 -39 190 -69 207 -72 248 -89 360
-143 235 -114 359 -261 467 -552 28 -75 91 -271 103 -316 9 -36 112 -404 181
-645 60 -211 117 -398 128 -425 5 -11 22 -63 39 -115 30 -95 84 -247 101 -285
5 -11 17 -38 26 -60 138 -320 277 -460 467 -468 131 -6 220 27 307 114 65 65
108 129 171 256 62 125 196 479 214 569 3 10 16 53 30 94 14 41 50 163 80 270
31 107 60 209 65 225 5 17 30 104 55 195 25 91 57 206 71 255 15 50 28 97 30
105 6 25 82 242 99 285 63 152 147 282 230 358 67 61 180 127 325 189 75 32
142 58 149 58 7 0 20 4 30 10 9 5 62 25 117 44 616 211 1028 394 1194 531 101
82 172 193 191 294 31 166 -13 311 -131 431 -53 55 -165 136 -239 175 -143 74
-238 118 -365 170 -49 20 -101 41 -115 47 -46 20 -64 27 -240 91 -96 36 -186
68 -200 71 -14 4 -34 11 -45 16 -24 10 -136 51 -150 55 -12 2 -14 3 -163 62
-195 76 -305 145 -403 251 -35 38 -71 82 -79 98 -8 16 -25 46 -38 68 -58 94
-184 461 -257 746 -27 105 -139 499 -190 665 -222 729 -372 1010 -579 1080
-56 19 -162 26 -224 14z"/>
<path d="M2175 4339 c-71 -16 -133 -92 -190 -234 -31 -75 -114 -337 -130 -405
-1 -8 -13 -49 -25 -90 -12 -41 -31 -106 -42 -145 -82 -290 -150 -378 -348
-448 -196 -69 -421 -157 -500 -196 -126 -61 -205 -136 -215 -205 -25 -163 55
-244 362 -367 70 -29 164 -64 208 -80 371 -129 394 -154 507 -543 34 -120 48
-171 73 -266 17 -66 108 -329 133 -381 61 -132 126 -189 213 -189 51 0 115 35
151 82 22 29 76 134 84 163 2 6 19 55 39 110 19 55 37 109 40 120 3 16 129
457 139 490 2 6 5 15 6 20 2 6 16 41 32 79 43 106 89 162 168 209 37 21 207
92 245 101 6 2 17 6 25 9 8 3 49 18 90 33 365 132 480 219 480 359 -1 104 -66
181 -215 254 -76 37 -224 99 -250 106 -5 1 -17 5 -25 8 -8 3 -78 29 -154 57
-171 62 -225 91 -277 148 -61 66 -101 164 -179 439 -93 328 -143 480 -192 583
-72 151 -144 203 -253 179z"/>
</g>
</svg>
